<svg xmlns="http://www.w3.org/2000/svg" width="1280" height="860" viewBox="0 0 1280 860">
  <rect width="1280" height="860" fill="#101722"/>
  <rect x="28" y="28" width="1224" height="804" rx="18" fill="#172231" stroke="#40536a" stroke-width="3"/>
  <text x="60" y="80" fill="#eef6ff" font-family="sans-serif" font-size="34" font-weight="700">Swab Lance / 棉拭长枪 — Redesign Concept</text>
  <text x="60" y="112" fill="#94a9bf" font-family="sans-serif" font-size="17">Charge launcher · heavy accelerating lance · 3 charge slots</text>

  <g transform="translate(70 165)">
    <rect width="740" height="300" rx="14" fill="#0d141e" stroke="#33465c" stroke-width="2"/>
    <text x="24" y="38" fill="#d8e7f5" font-family="sans-serif" font-size="20" font-weight="700">Primary silhouette</text>
    <ellipse cx="378" cy="232" rx="300" ry="22" fill="#071019" opacity="0.65"/>
    <g transform="translate(88 74)">
      <path d="M20 88 L88 48 L170 58 L196 84 L174 116 L82 138 L20 128 Z" fill="#384654" stroke="#0b1017" stroke-width="8"/>
      <path d="M32 88 L92 60 L160 66 L176 84 L160 103 L84 122 L32 114 Z" fill="#627789"/>
      <rect x="160" y="68" width="278" height="36" rx="9" fill="#c8d5de" stroke="#0b1017" stroke-width="8"/>
      <rect x="174" y="76" width="232" height="10" fill="#f5fbff"/>
      <rect x="214" y="92" width="190" height="8" fill="#879dac"/>
      <path d="M438 62 L520 78 L550 86 L520 96 L438 110 Z" fill="#e8f5fb" stroke="#0b1017" stroke-width="8"/>
      <path d="M474 73 L536 86 L474 99 Z" fill="#9fe7ff"/>
      <circle cx="545" cy="86" r="13" fill="#dffaff" stroke="#0b1017" stroke-width="6"/>
      <circle cx="545" cy="86" r="6" fill="#63d7ff"/>
      <path d="M118 122 L174 122 L164 184 L120 176 Z" fill="#293540" stroke="#0b1017" stroke-width="8"/>
      <rect x="132" y="132" width="18" height="30" rx="5" fill="#b6c6cf"/>
      <g>
        <circle cx="196" cy="117" r="12" fill="#18222e" stroke="#0b1017" stroke-width="5"/>
        <circle cx="196" cy="117" r="5" fill="#63d7ff"/>
        <circle cx="228" cy="117" r="12" fill="#18222e" stroke="#0b1017" stroke-width="5"/>
        <circle cx="228" cy="117" r="5" fill="#63d7ff"/>
        <circle cx="260" cy="117" r="12" fill="#18222e" stroke="#0b1017" stroke-width="5"/>
        <circle cx="260" cy="117" r="5" fill="#63d7ff"/>
      </g>
      <path d="M10 70 L-18 86 L10 104" fill="none" stroke="#d9eef8" stroke-width="10" stroke-linecap="round" stroke-linejoin="round"/>
      <path d="M8 74 L-5 86 L8 98" fill="none" stroke="#63d7ff" stroke-width="4"/>
    </g>
    <text x="26" y="274" fill="#94a9bf" font-family="sans-serif" font-size="15">Wide rear pressure cradle · long sterile barrel · disposable swab-lance tip · visible 3-charge sockets</text>
  </g>

  <g transform="translate(840 165)">
    <rect width="370" height="300" rx="14" fill="#0d141e" stroke="#33465c" stroke-width="2"/>
    <text x="22" y="38" fill="#d8e7f5" font-family="sans-serif" font-size="20" font-weight="700">Palette</text>
    <g font-family="sans-serif" font-size="15" fill="#d8e7f5">
      <rect x="28" y="62" width="62" height="42" rx="6" fill="#0b1017"/><text x="106" y="88">Outline / #0B1017</text>
      <rect x="28" y="116" width="62" height="42" rx="6" fill="#384654"/><text x="106" y="142">Frame steel / #384654</text>
      <rect x="28" y="170" width="62" height="42" rx="6" fill="#c8d5de"/><text x="106" y="196">Sterile shell / #C8D5DE</text>
      <rect x="28" y="224" width="62" height="42" rx="6" fill="#63d7ff"/><text x="106" y="250">Charge cyan / #63D7FF</text>
    </g>
  </g>

  <g transform="translate(70 500)">
    <rect width="1140" height="280" rx="14" fill="#0d141e" stroke="#33465c" stroke-width="2"/>
    <text x="24" y="38" fill="#d8e7f5" font-family="sans-serif" font-size="20" font-weight="700">Gameplay states</text>
    <g font-family="sans-serif">
      <g transform="translate(35 65)">
        <rect width="245" height="175" rx="10" fill="#141f2c"/>
        <text x="16" y="28" fill="#d8e7f5" font-size="17" font-weight="700">Idle / 3 charges</text>
        <rect x="24" y="74" width="150" height="18" rx="5" fill="#c8d5de"/><path d="M174 68 L216 83 L174 98 Z" fill="#e8f5fb"/>
        <circle cx="52" cy="117" r="9" fill="#63d7ff"/><circle cx="82" cy="117" r="9" fill="#63d7ff"/><circle cx="112" cy="117" r="9" fill="#63d7ff"/>
        <text x="16" y="154" fill="#94a9bf" font-size="14">Stable sockets; no ambient bloom.</text>
      </g>
      <g transform="translate(305 65)">
        <rect width="245" height="175" rx="10" fill="#141f2c"/>
        <text x="16" y="28" fill="#d8e7f5" font-size="17" font-weight="700">Charge consumed</text>
        <rect x="24" y="74" width="150" height="18" rx="5" fill="#c8d5de"/><path d="M174 68 L216 83 L174 98 Z" fill="#e8f5fb"/>
        <circle cx="52" cy="117" r="9" fill="#23303d"/><circle cx="82" cy="117" r="9" fill="#63d7ff"/><circle cx="112" cy="117" r="9" fill="#63d7ff"/>
        <text x="16" y="154" fill="#94a9bf" font-size="14">Spent socket turns dark immediately.</text>
      </g>
      <g transform="translate(575 65)">
        <rect width="245" height="175" rx="10" fill="#141f2c"/>
        <text x="16" y="28" fill="#d8e7f5" font-size="17" font-weight="700">Launch / acceleration</text>
        <path d="M34 83 L158 83" stroke="#63d7ff" stroke-width="8" stroke-linecap="round"/><path d="M158 68 L220 83 L158 98 Z" fill="#e8f5fb"/>
        <path d="M30 108 L118 108" stroke="#a8ecff" stroke-width="3" stroke-dasharray="12 8"/>
        <text x="16" y="154" fill="#94a9bf" font-size="14">Short pale start, longer cyan speed trail.</text>
      </g>
      <g transform="translate(845 65)">
        <rect width="245" height="175" rx="10" fill="#141f2c"/>
        <text x="16" y="28" fill="#d8e7f5" font-size="17" font-weight="700">Recharge</text>
        <circle cx="58" cy="94" r="18" fill="none" stroke="#63d7ff" stroke-width="5" stroke-dasharray="70 30"/>
        <circle cx="112" cy="94" r="18" fill="none" stroke="#63d7ff" stroke-width="5" stroke-dasharray="45 55"/>
        <circle cx="166" cy="94" r="18" fill="none" stroke="#63d7ff" stroke-width="5" stroke-dasharray="20 80"/>
        <text x="16" y="154" fill="#94a9bf" font-size="14">One socket refills; no full-body flash.</text>
      </g>
    </g>
  </g>

  <text x="70" y="815" fill="#6f859b" font-family="sans-serif" font-size="14">Implementation target: preserve 30×16 footprint and muzzle alignment; separate charge sockets, tip pulse and launch recoil.</text>
</svg>