<svg xmlns="http://www.w3.org/2000/svg" width="1200" height="800" viewBox="0 0 1200 800">
  <rect width="1200" height="800" fill="#111820"/>
  <rect x="24" y="24" width="1152" height="752" rx="18" fill="#18232d" stroke="#314553" stroke-width="3"/>
  <text x="56" y="78" fill="#ecf0f1" font-family="sans-serif" font-size="34" font-weight="700">Mask Sprayer — 冻雾面具喷射器重画提案</text>
  <text x="56" y="112" fill="#91a6b5" font-family="sans-serif" font-size="18">25×18 px weapon silhouette · heat resource · 8-pellet freezing spray</text>

  <g transform="translate(70 160)">
    <text x="0" y="0" fill="#c9d6df" font-family="sans-serif" font-size="22" font-weight="700">A. 主轮廓</text>
    <rect x="0" y="24" width="500" height="270" rx="14" fill="#10171d" stroke="#2b3e4b"/>
    <g transform="translate(44 78) scale(7)">
      <path d="M2 8 L5 3 L12 2 L16 5 L16 10 L12 13 L5 12 Z" fill="#d9e4e8" stroke="#0b1116" stroke-width="1.2"/>
      <circle cx="7" cy="7" r="3.4" fill="#263844" stroke="#0b1116" stroke-width="1"/>
      <path d="M5.7 6.3 L6.7 5.4 L7.8 6.3 L7.2 8.2 L6.1 8.2 Z" fill="#82e6f4"/>
      <circle cx="5.4" cy="6.5" r="0.55" fill="#ecf0f1"/>
      <circle cx="8.5" cy="6.5" r="0.55" fill="#ecf0f1"/>
      <path d="M12 4 L18 4 L22 6 L22 9 L18 11 L12 10 Z" fill="#9fb1ba" stroke="#0b1116" stroke-width="1"/>
      <rect x="16" y="5.3" width="4" height="1.1" fill="#d8fbff"/>
      <path d="M21 5 L24 4 L25 6 L25 9 L24 11 L21 10 Z" fill="#66d7e8" stroke="#0b1116" stroke-width="1"/>
      <path d="M10 11 L14 11 L13 17 L10.5 17 Z" fill="#31444f" stroke="#0b1116" stroke-width="1"/>
      <rect x="11" y="12" width="1.3" height="3" fill="#f0b35a"/>
      <path d="M3 10 L1 13 L5 13 L7 11 Z" fill="#8ba2ad" stroke="#0b1116" stroke-width="1"/>
    </g>
    <text x="30" y="245" fill="#9fb2bf" font-family="sans-serif" font-size="16">面具储罐作为后部质量中心；短宽喷口与楔形冷凝罩形成喷射方向。</text>
  </g>

  <g transform="translate(620 160)">
    <text x="0" y="0" fill="#c9d6df" font-family="sans-serif" font-size="22" font-weight="700">B. 状态语言</text>
    <rect x="0" y="24" width="510" height="270" rx="14" fill="#10171d" stroke="#2b3e4b"/>
    <g font-family="sans-serif" font-size="16">
      <circle cx="55" cy="85" r="18" fill="#7fe7f3"/><text x="90" y="92" fill="#dfe9ee">待机：镜片冷青，喷口仅有薄雾</text>
      <circle cx="55" cy="137" r="18" fill="#f2c35f"/><text x="90" y="144" fill="#dfe9ee">高热：面具边缘转琥珀，阀门急促闪烁</text>
      <circle cx="55" cy="189" r="18" fill="#ef6b63"/><text x="90" y="196" fill="#dfe9ee">过热：喷口闭锁，红色压力环外扩</text>
      <circle cx="55" cy="241" r="18" fill="#d9f8ff"/><text x="90" y="248" fill="#dfe9ee">恢复：冷凝水滴回流，镜片重新点亮</text>
    </g>
  </g>

  <g transform="translate(70 500)">
    <text x="0" y="0" fill="#c9d6df" font-family="sans-serif" font-size="22" font-weight="700">C. 配色与特效</text>
    <rect x="0" y="24" width="1060" height="210" rx="14" fill="#10171d" stroke="#2b3e4b"/>
    <g transform="translate(32 58)">
      <rect width="84" height="48" rx="8" fill="#0b1116"/><text x="0" y="70" fill="#a9bac5" font-family="sans-serif" font-size="14">轮廓黑</text>
      <rect x="112" width="84" height="48" rx="8" fill="#d9e4e8"/><text x="112" y="70" fill="#a9bac5" font-family="sans-serif" font-size="14">面具骨白</text>
      <rect x="224" width="84" height="48" rx="8" fill="#7fe7f3"/><text x="224" y="70" fill="#a9bac5" font-family="sans-serif" font-size="14">冷雾青</text>
      <rect x="336" width="84" height="48" rx="8" fill="#f2c35f"/><text x="336" y="70" fill="#a9bac5" font-family="sans-serif" font-size="14">热量琥珀</text>
      <rect x="448" width="84" height="48" rx="8" fill="#ef6b63"/><text x="448" y="70" fill="#a9bac5" font-family="sans-serif" font-size="14">过热红</text>
    </g>
    <path d="M650 105 C720 65 795 72 860 104 C915 132 958 132 1010 108" fill="none" stroke="#d9f8ff" stroke-width="22" stroke-linecap="round" opacity="0.18"/>
    <path d="M650 105 C720 65 795 72 860 104 C915 132 958 132 1010 108" fill="none" stroke="#8feaf5" stroke-width="8" stroke-linecap="round" stroke-dasharray="3 12"/>
    <text x="650" y="160" fill="#a9bac5" font-family="sans-serif" font-size="15">8 粒短寿命冻雾：中心密、边缘疏；命中只保留小型霜花，避免遮挡敌人。</text>
  </g>
</svg>