<svg xmlns="http://www.w3.org/2000/svg" width="1400" height="900" viewBox="0 0 1400 900">
<defs>
  <linearGradient id="bg" x1="0" y1="0" x2="1" y2="1"><stop offset="0" stop-color="#08110f"/><stop offset="1" stop-color="#10192a"/></linearGradient>
  <linearGradient id="cloth" x1="0" y1="0" x2="0" y2="1"><stop offset="0" stop-color="#72f0a3"/><stop offset="0.48" stop-color="#25b86d"/><stop offset="1" stop-color="#12543f"/></linearGradient>
  <linearGradient id="metal" x1="0" y1="0" x2="1" y2="1"><stop offset="0" stop-color="#dff8ef"/><stop offset="0.45" stop-color="#7db7a3"/><stop offset="1" stop-color="#263c3b"/></linearGradient>
  <filter id="glow"><feGaussianBlur stdDeviation="6" result="b"/><feMerge><feMergeNode in="b"/><feMergeNode in="SourceGraphic"/></feMerge></filter>
  <style>.title{font:700 34px system-ui,sans-serif;fill:#edf8f5}.sub{font:600 18px system-ui,sans-serif;fill:#72f0a3}.head{font:700 22px system-ui,sans-serif;fill:#8fe7b3}.body{font:500 17px system-ui,sans-serif;fill:#d7e5e2}.small{font:500 14px system-ui,sans-serif;fill:#9eb3ae}.label{font:700 14px system-ui,sans-serif;fill:#edf8f5}.panel{fill:#0f1a20;stroke:#29403e;stroke-width:2}</style>
</defs>
<rect width="1400" height="900" fill="url(#bg)"/><rect x="18" y="18" width="1364" height="864" rx="18" fill="none" stroke="#36534d" stroke-width="2"/>
<text x="46" y="62" class="title">CMYS-FIGHT 美术重画提案</text><text x="46" y="96" class="sub">对象：CMYS Swift Form · 高速突进 / 近距爆发 / 冲刺暴击</text>
<rect x="42" y="126" width="600" height="520" rx="14" class="panel"/><text x="66" y="162" class="head">概念主视图</text>
<ellipse cx="334" cy="573" rx="150" ry="23" fill="#020706" opacity=".72"/><ellipse cx="334" cy="566" rx="132" ry="13" fill="#4df08f" opacity=".18" filter="url(#glow)"/>
<g transform="translate(0 4)">
  <path d="M274 302 L316 272 L353 286 L383 322 L366 373 L389 431 L369 531 L323 552 L278 528 L257 438 L278 370 Z" fill="url(#cloth)" stroke="#aef5c8" stroke-width="8" stroke-linejoin="round"/>
  <path d="M291 285 L320 243 L350 250 L370 293 L354 328 L307 327 Z" fill="#17352e" stroke="#aef5c8" stroke-width="7"/>
  <path d="M310 250 L328 218 L346 249" fill="#72f0a3" stroke="#dff8ef" stroke-width="5"/>
  <path d="M302 334 L268 365 L244 419 L276 431 L306 391" fill="url(#metal)" stroke="#dff8ef" stroke-width="7"/>
  <path d="M357 335 L399 361 L427 408 L397 425 L361 390" fill="url(#metal)" stroke="#dff8ef" stroke-width="7"/>
  <path d="M285 510 L248 562 L279 576 L319 534" fill="#17352e" stroke="#72f0a3" stroke-width="7"/>
  <path d="M368 508 L404 555 L379 576 L340 535" fill="#17352e" stroke="#72f0a3" stroke-width="7"/>
  <path d="M244 419 L206 431 L171 420 L205 401" fill="#b8f7d1" stroke="#2a6b53" stroke-width="6"/>
  <path d="M426 407 L470 398 L507 417 L468 434" fill="#b8f7d1" stroke="#2a6b53" stroke-width="6"/>
  <rect x="315" y="291" width="15" height="8" rx="3" fill="#eafff3" filter="url(#glow)"/>
  <rect x="338" y="291" width="15" height="8" rx="3" fill="#eafff3" filter="url(#glow)"/>
  <path d="M284 352 L334 384 L379 350" fill="none" stroke="#d8fff0" stroke-width="6" opacity=".8"/>
  <path d="M255 438 C215 455 188 486 166 529" fill="none" stroke="#4df08f" stroke-width="10" opacity=".35" filter="url(#glow)"/>
  <path d="M270 460 C231 487 215 519 204 550" fill="none" stroke="#9af7bb" stroke-width="5" opacity=".45"/>
</g>
<text x="66" y="610" class="small">轮廓：前倾兜帽、分叉短披风、双臂外张、尖锐靴型</text><text x="66" y="633" class="small">材质：轻型护甲 / 绿色能量缝线 / 冲刺残影</text>
<rect x="670" y="126" width="688" height="520" rx="14" class="panel"/><text x="694" y="162" class="head">设计要求</text>
<text x="694" y="202" class="body">现状问题</text><text x="714" y="232" class="small">• Swift Form 未进入 detailed character art 列表，仍依赖通用角色体型</text><text x="714" y="258" class="small">• 速度 120 与冲刺后暴击被动缺少专属身体语言</text><text x="714" y="284" class="small">• 与 Guard、Arcane 的差异主要落在配色与数值，轮廓层不足</text>
<text x="694" y="330" class="body">视觉目标</text><text x="714" y="360" class="small">• 320×240 下仅凭前倾姿态和短披风即可识别高速形态</text><text x="714" y="386" class="small">• 冲刺结束后的 2 秒暴击窗口必须具有持续但克制的状态反馈</text><text x="714" y="412" class="small">• 霰弹枪后坐与角色轻量化动作需要形成反差，不削弱武器重量感</text>
<text x="694" y="458" class="body">建议色板</text>
<g><rect x="714" y="480" width="72" height="34" rx="4" fill="#0e211b"/><rect x="798" y="480" width="72" height="34" rx="4" fill="#12543f"/><rect x="882" y="480" width="72" height="34" rx="4" fill="#25b86d"/><rect x="966" y="480" width="72" height="34" rx="4" fill="#72f0a3"/><rect x="1050" y="480" width="72" height="34" rx="4" fill="#dff8ef"/></g>
<text x="714" y="540" class="small">深影 #0E211B · 主体 #12543F · 主绿 #25B86D · 能量 #72F0A3 · 高光 #DFF8EF</text>
<text x="694" y="580" class="body">玩法可读性</text><text x="714" y="610" class="small">• 冲刺轨迹不得遮挡脚下危险区；主残影寿命建议 0.18–0.24 秒</text><text x="714" y="634" class="small">• 暴击窗口使用肩线与靴部脉冲，不使用全身强闪烁</text>
<rect x="42" y="674" width="1316" height="168" rx="14" class="panel"/><text x="66" y="710" class="head">动画关键帧建议</text>
<g transform="translate(82 738)">
  <g transform="translate(0 0)"><path d="M18 72 L34 20 L55 9 L76 24 L88 72 Z" fill="url(#cloth)" stroke="#aef5c8" stroke-width="3"/><text x="25" y="103" class="label">待机</text></g>
  <g transform="translate(180 0)"><path d="M8 72 L28 30 L60 18 L91 34 L102 72 Z" fill="url(#cloth)" stroke="#aef5c8" stroke-width="3"/><path d="M5 50 H-35" stroke="#4df08f" stroke-width="7" opacity=".4"/><text x="24" y="103" class="label">疾跑</text></g>
  <g transform="translate(360 0)"><path d="M-6 72 L22 38 L58 31 L97 40 L116 72 Z" fill="url(#cloth)" stroke="#dff8ef" stroke-width="4"/><path d="M-50 58 H0" stroke="#72f0a3" stroke-width="12" opacity=".45"/><text x="26" y="103" class="label">冲刺</text></g>
  <g transform="translate(560 0)"><path d="M14 72 L33 24 L57 14 L80 27 L94 72 Z" fill="url(#cloth)" stroke="#aef5c8" stroke-width="3"/><g fill="#72f0a3" filter="url(#glow)"><rect x="16" y="12" width="7" height="7" transform="rotate(45 19 15)"/><rect x="91" y="15" width="7" height="7" transform="rotate(45 94 18)"/></g><text x="0" y="103" class="label">暴击窗口</text></g>
  <g transform="translate(770 0)"><path d="M4 72 L28 35 L58 30 L96 37 L110 72 Z" fill="url(#cloth)" stroke="#aef5c8" stroke-width="3"/><path d="M104 40 L154 29 L178 43 L151 56" fill="#dff8ef" stroke="#2a6b53" stroke-width="3"/><path d="M0 43 H-34" stroke="#72f0a3" stroke-width="5" opacity=".35"/><text x="15" y="103" class="label">霰弹射击</text></g>
  <g transform="translate(1010 0)"><path d="M10 72 L32 48 L58 44 L90 49 L106 72 Z" fill="#214a3c" stroke="#eafff3" stroke-width="4"/><path d="M26 18 L92 78 M93 18 L25 78" stroke="#ffffff" stroke-width="5" opacity=".75"/><text x="27" y="103" class="label">受击</text></g>
</g>
<text x="46" y="872" class="small">记录：本次对象为 CMYS Swift Form。下一步重点：前倾幅度、披风长度、冲刺残影寿命、暴击窗口脉冲强度、霰弹后坐帧数。</text>
</svg>